<svg width="28" height="28" viewBox="0 0 28 28" fill="none" xmlns="http://www.w3.org/2000/svg">
<path fill-rule="evenodd" clip-rule="evenodd" d="M0 13.95C0.0132454 10.2413 1.49751 6.68944 4.12697 4.07402C6.75643 1.45861 10.3162 -0.00660034 14.0249 2.23533e-05C17.7336 0.00664504 21.2881 1.48456 23.9082 4.10935C26.5283 6.73413 27.9999 10.2913 27.9999 14C27.9999 17.7087 26.5283 21.2659 23.9082 23.8907C21.2881 26.5154 17.7336 27.9934 14.0249 28C10.3162 28.0066 6.75643 26.5414 4.12697 23.926C1.49751 21.3106 0.0132454 17.7587 0 14.05" fill="#617DEB"/>
<path fill-rule="evenodd" clip-rule="evenodd" d="M13.71 22.511L8 19.213V12.107L10.57 10.697L8 8.853V5H10.83V7.126L13.71 8.853L16.433 7.126V5H19.281V8.853L16.631 10.697L19.281 12.107V19.213L13.711 22.511H13.71ZM13.495 12.23L10.798 13.977V17.437L13.495 19.156L16.397 17.436V13.782L13.495 12.23Z" fill="white"/>
</svg>
